<svg width="182" height="86" viewBox="0 0 182 86" fill="none" xmlns="http://www.w3.org/2000/svg">
<path d="M38.9221 5.38835C39.1366 4.87942 38.8979 4.29297 38.3889 4.07849L30.0953 0.583312C29.5864 0.36883 28.9999 0.607533 28.7855 1.11647C28.571 1.62541 28.8097 2.21185 29.3186 2.42633L36.6907 5.53316L33.5839 12.9052C33.3694 13.4142 33.6081 14.0006 34.117 14.2151C34.626 14.4296 35.2124 14.1909 35.4269 13.6819L38.9221 5.38835ZM37.6236 4.07379C25.1272 9.16021 16.0049 14.5254 9.88684 20.0061C3.7667 25.4888 0.588067 31.1495 0.151638 36.8059C-0.285411 42.4703 2.04342 47.9201 6.49932 52.9402C10.9491 57.9534 17.5668 62.597 25.8687 66.7086C59.0455 83.1397 120.026 91.5124 181.684 79.983L181.316 78.017C119.974 89.4876 59.4544 81.1103 26.7564 64.9164C18.5896 60.8717 12.2151 56.3669 7.99508 51.6125C3.78112 46.865 1.76237 41.9281 2.14571 36.9597C2.52968 31.9833 5.33942 26.7651 11.2213 21.4958C17.1054 16.2246 25.9988 10.9648 38.3776 5.92621L37.6236 4.07379Z" fill="url(#paint0_linear_322_50756)"/>
<defs>
<linearGradient id="paint0_linear_322_50756" x1="10.9234" y1="-60.8402" x2="228.812" y2="23.6286" gradientUnits="userSpaceOnUse">
<stop stop-color="#FF6785"/>
<stop offset="1" stop-color="#744CCC"/>
</linearGradient>
</defs>
</svg>
